<?xml version="1.0" encoding="UTF-8"?>
<svg width="24px" height="19px" viewBox="0 0 24 19" version="1.1" xmlns="http://www.w3.org/2000/svg" xmlns:xlink="http://www.w3.org/1999/xlink">
    <!-- Generator: Sketch 55 (78076) - https://sketchapp.com -->
    <title>Fill 1</title>
    <desc>Created with Sketch.</desc>
    <g id="Desktop" stroke="none" stroke-width="1" fill="none" fill-rule="evenodd">
        <g id="Press-Release" transform="translate(-180.000000, -2471.000000)" fill="#415365">
            <g id="Group-2" transform="translate(121.000000, 2440.000000)">
                <g id="Group-5">
                    <path d="M82.181751,33.1739015 C81.3485493,33.5426241 80.4531413,33.7918281 79.5133356,33.9039079 C80.4726067,33.3301189 81.2092268,32.4215783 81.556125,31.3390496 C80.6584805,31.8702714 79.6641717,32.2561036 78.605917,32.4640629 C77.7583855,31.5630439 76.5509513,31 75.2147142,31 C72.6488442,31 70.568615,33.0757077 70.568615,35.6359373 C70.568615,35.9992874 70.6097822,36.3531322 70.6889691,36.6924298 C66.8276978,36.4991004 63.4043565,34.6534208 61.1129071,31.8486159 C60.7129968,32.5333275 60.483885,33.3297056 60.483885,34.1793134 C60.483885,35.7876913 61.3041649,37.2067074 62.5507784,38.0380484 C61.7891431,38.0139959 61.0728167,37.8054581 60.4463623,37.4582257 C60.446031,37.4775669 60.446031,37.4969907 60.446031,37.5164972 C60.446031,39.7627216 62.0474944,41.6365038 64.1728668,42.0623409 C63.7829791,42.1683042 63.3725492,42.2249227 62.9487835,42.2249227 C62.6494306,42.2249227 62.3583609,42.1959109 62.074746,42.1417721 C62.6659141,43.9836496 64.3816849,45.3239783 66.4147002,45.3614209 C64.8246675,46.6047957 62.8213887,47.3459605 60.6447437,47.3459605 C60.2697657,47.3459605 59.8999232,47.324057 59.5364588,47.2812418 C61.5925012,48.5966089 64.0346211,49.3640578 66.6583075,49.3640578 C75.2038633,49.3640578 79.8768828,42.2998079 79.8768828,36.1735235 C79.8768828,35.9725073 79.8724099,35.7725655 79.8634641,35.573781 C80.7711313,34.9201475 81.5588584,34.1036017 82.181751,33.1739015" id="Fill-1"></path>
                </g>
            </g>
        </g>
    </g>
</svg>