<?xml version="1.0" encoding="UTF-8"?>
<svg width="19px" height="19px" viewBox="0 0 19 19" version="1.1" xmlns="http://www.w3.org/2000/svg" xmlns:xlink="http://www.w3.org/1999/xlink">
    <!-- Generator: Sketch 55 (78076) - https://sketchapp.com -->
    <title>Fill 1</title>
    <desc>Created with Sketch.</desc>
    <g id="Desktop" stroke="none" stroke-width="1" fill="none" fill-rule="evenodd">
        <g id="Press-Release" transform="translate(-242.000000, -2473.000000)" fill="#415365">
            <g id="Group-2" transform="translate(121.000000, 2440.000000)">
                <g id="Group-5">
                    <path d="M138.445041,33.120952 L122.019041,33.120952 C121.456182,33.120952 121,33.5761603 121,34.1378185 L121,50.5287679 C121,51.0903571 121.456182,51.5457035 122.019041,51.5457035 L130.862283,51.5457035 L130.862283,44.4106556 L128.456018,44.4106556 L128.456018,41.6299778 L130.862283,41.6299778 L130.862283,39.5793315 C130.862283,37.1996015 132.318827,35.9037698 134.446291,35.9037698 C135.465401,35.9037698 136.341237,35.9794307 136.596447,36.0132573 L136.596447,38.5002656 L135.120947,38.500956 C133.963959,38.500956 133.73988,39.0495668 133.73988,39.8546379 L133.73988,41.6299778 L136.499316,41.6299778 L136.140057,44.4106556 L133.73988,44.4106556 L133.73988,51.5457035 L138.445041,51.5457035 C139.007831,51.5457035 139.464082,51.0903571 139.464082,50.5287679 L139.464082,34.1378185 C139.464082,33.5761603 139.007831,33.120952 138.445041,33.120952" id="Fill-1"></path>
                </g>
            </g>
        </g>
    </g>
</svg>