<svg width="26" height="59" viewBox="0 0 26 59" xmlns="http://www.w3.org/2000/svg" xmlns:xlink="http://www.w3.org/1999/xlink"><title>Page 1</title><defs><path id="a" d="M25.09.571H0v38.136h25.09V.57z"/><path id="c" d="M1.02 1h-1V.927h1V1z"/><path id="e" d="M1.083 1h-1V.855h1V1z"/></defs><g fill="none" fill-rule="evenodd"><g transform="translate(0 -.57)"><mask id="b" fill="#fff"><use xlink:href="#a"/></mask><path d="M23.192 29.06c0 4.273-3.477 7.749-7.748 7.749H9.646c-4.272 0-7.747-3.476-7.747-7.748V10.216c0-4.272 3.475-7.748 7.747-7.748h5.798c4.271 0 7.748 3.477 7.748 7.748V29.06zM15.444.57H9.646C4.327.57 0 4.9 0 10.218V29.06c0 5.32 4.327 9.646 9.646 9.646h5.798c5.32 0 9.646-4.327 9.646-9.646V10.218c0-5.319-4.327-9.647-9.646-9.647z" fill="#FFF" mask="url(#b)"/></g><path d="M12.546 7.972a.952.952 0 0 0-.95.95v4.348a.95.95 0 0 0 1.899 0V8.922a.95.95 0 0 0-.95-.95" fill="#FFF"/><g transform="translate(13 57.43)"><mask id="d" fill="#fff"><use xlink:href="#c"/></mask><path d="M.02.932L.054.927a.178.178 0 0 0-.03.003c0 .001 0 .002-.002.002" fill="#FFF" mask="url(#d)"/></g><path d="M15.581 53.195l-2.086 1.963V44.434a.95.95 0 0 0-1.899 0v10.775l-2.013-2.014a.904.904 0 0 0-1.322 0 .939.939 0 0 0-.289.66c0 .24.103.476.29.662l3.621 3.622h.072l.073.073h.072l.107.089a.533.533 0 0 1 .194.086.536.536 0 0 1 .098.042l.4-.048.202-.134a.997.997 0 0 1 .264-.193l3.538-3.537a.904.904 0 0 0 0-1.322.904.904 0 0 0-1.322 0" fill="#FFF"/><g transform="translate(13 57.43)"><mask id="f" fill="#fff"><use xlink:href="#e"/></mask><path d="M.083.873L.198.855a.406.406 0 0 0-.113.016L.083.873" fill="#FFF" mask="url(#f)"/></g></g></svg>