<?xml version="1.0" encoding="UTF-8"?>
<svg width="20px" height="20px" viewBox="0 0 20 20" version="1.1" xmlns="http://www.w3.org/2000/svg" xmlns:xlink="http://www.w3.org/1999/xlink">
    <!-- Generator: Sketch 55 (78076) - https://sketchapp.com -->
    <title>Fill 10</title>
    <desc>Created with Sketch.</desc>
    <g id="Desktop" stroke="none" stroke-width="1" fill="none" fill-rule="evenodd">
        <g id="Press-Release" transform="translate(-122.000000, -2472.000000)" fill="#415365">
            <g id="Group-2" transform="translate(121.000000, 2440.000000)">
                <g id="Group-5">
                    <path d="M17.908645,48.5605194 L15.0906337,48.5605194 L15.0906337,44.2827594 C15.0906337,43.2628554 15.0721566,41.9505994 13.625669,41.9505994 C12.1591205,41.9505994 11.9352845,43.0621514 11.9352845,44.2100554 L11.9352845,48.5605194 L9.11991267,48.5605194 L9.11991267,39.7643594 L11.8217827,39.7643594 L11.8217827,40.9670474 L11.8603205,40.9670474 C12.2361961,40.2753354 13.1563523,39.5462474 14.527876,39.5462474 C17.3812577,39.5462474 17.908645,41.3674314 17.908645,43.7364554 L17.908645,48.5605194 L17.908645,48.5605194 Z M5.94133521,38.5626954 C5.03596064,38.5626954 4.30638182,37.8525514 4.30638182,36.9770314 C4.30638182,36.1020234 5.03596064,35.3918794 5.94133521,35.3918794 C6.84301439,35.3918794 7.57523278,36.1020234 7.57523278,36.9770314 C7.57523278,37.8525514 6.84301439,38.5626954 5.94133521,38.5626954 L5.94133521,38.5626954 Z M4.53021787,48.5605194 L7.35139673,48.5605194 L7.35139673,39.7643594 L4.53021787,39.7643594 L4.53021787,48.5605194 Z M19.3123716,32.8544074 L3.11593303,32.8544074 C2.34253725,32.8544074 1.71379024,33.4493514 1.71379024,34.1835594 L1.71379024,49.9562314 C1.71379024,50.6904394 2.34253725,51.2864074 3.11593303,51.2864074 L19.3123716,51.2864074 C20.087879,51.2864074 20.7182098,50.6904394 20.7182098,49.9562314 L20.7182098,34.1835594 C20.7182098,33.4493514 20.087879,32.8544074 19.3123716,32.8544074 L19.3123716,32.8544074 Z" id="Fill-10"></path>
                </g>
            </g>
        </g>
    </g>
</svg>