<svg width="24" height="19" xmlns="http://www.w3.org/2000/svg"><path d="M23.182 2.174a9.305 9.305 0 0 1-2.669.73A4.652 4.652 0 0 0 22.556.339a9.316 9.316 0 0 1-2.95 1.125A4.645 4.645 0 0 0 16.215 0a4.641 4.641 0 0 0-4.526 5.692A13.2 13.2 0 0 1 2.113.85a4.631 4.631 0 0 0 1.438 6.19 4.635 4.635 0 0 1-2.105-.58v.057a4.641 4.641 0 0 0 3.727 4.546 4.662 4.662 0 0 1-2.098.08 4.65 4.65 0 0 0 4.34 3.22 9.335 9.335 0 0 1-5.77 1.984 9.47 9.47 0 0 1-1.109-.065 13.17 13.17 0 0 0 7.122 2.083c8.546 0 13.219-7.064 13.219-13.19 0-.201-.005-.401-.014-.6a9.432 9.432 0 0 0 2.319-2.4" fill="#415365" fill-rule="evenodd"/></svg>