<svg width="214" height="19" xmlns="http://www.w3.org/2000/svg"><path d="M212.069 1.001L199.632 1c-.802 0-1.316.511-1.69 1.023L187.185 16.76c-.426.679-.09 1.237.746 1.239l12.404.001c.802 0 1.316-.512 1.69-1.024l10.79-14.736c.426-.679.09-1.237-.746-1.239m-26.572 0L173.061 1c-.802 0-1.316.511-1.69 1.023L160.614 16.76c-.427.679-.091 1.237.746 1.239l12.403.001c.803 0 1.316-.512 1.69-1.024l10.79-14.736c.427-.679.091-1.237-.746-1.239m-26.57 0L146.49 1c-.803 0-1.316.511-1.69 1.023L134.041 16.76c-.426.679-.09 1.237.746 1.239l12.404.001c.802 0 1.316-.512 1.69-1.024l10.79-14.736c.426-.679.09-1.237-.746-1.239m-26.571 0L119.918 1c-.802 0-1.316.511-1.69 1.023L107.471 16.76c-.427.679-.09 1.237.746 1.239L120.62 18c.802 0 1.315-.512 1.69-1.024 0-.002 10.79-14.736 10.79-14.736.426-.679.09-1.237-.746-1.239m-26.572 0L93.347 1c-.803 0-1.316.511-1.69 1.023L80.9 16.76c-.427.679-.091 1.237.745 1.239L94.05 18c.803 0 1.316-.512 1.69-1.024L106.53 2.24c.426-.679.091-1.237-.746-1.239m-26.571 0L66.775 1c-.802 0-1.316.511-1.69 1.023L54.328 16.76c-.427.679-.09 1.237.746 1.239L67.478 18c.802 0 1.316-.512 1.69-1.024 0-.002 10.79-14.736 10.79-14.736.426-.679.09-1.237-.746-1.239m-26.572 0L40.204 1c-.803 0-1.316.511-1.69 1.023L27.757 16.76c-.427.679-.091 1.237.746 1.239L40.906 18c.803 0 1.316-.512 1.69-1.024L53.386 2.24c.426-.679.091-1.237-.746-1.239m-26.571 0L13.632 1c-.802 0-1.316.511-1.69 1.023L1.185 16.76c-.426.679-.09 1.237.746 1.239L14.335 18c.802 0 1.316-.512 1.69-1.024L26.815 2.24c.426-.679.09-1.237-.746-1.239" stroke="#FFF" fill="none"/></svg>